<svg xmlns="http://www.w3.org/2000/svg" viewBox="0 0 410 404" role="img" aria-label="Vite logo">
  <defs>
    <linearGradient id="a" x1="0" x2="1" y1="0" y2="1">
      <stop stop-color="#41d1ff" offset="0" />
      <stop stop-color="#bd34fe" offset="1" />
    </linearGradient>
    <linearGradient id="b" x1="0" x2="1" y1="0" y2="1">
      <stop stop-color="#ffea83" offset="0" />
      <stop stop-color="#ffdd35" offset="0.5" />
      <stop stop-color="#ffa800" offset="1" />
    </linearGradient>
  </defs>
  <path
    fill="url(#a)"
    d="M255.153 14.592c-5.132-7.749-16.962-7.575-21.847.322L25.732 350.089c-4.586 7.435 0.785 17.07 9.601 16.428l111.936-8.151a10 10 0 0 0 8.747-6.31l27.083-70.401 66.807-177.602a10 10 0 0 0-6.863-13.133l-34.639-9.564 40.841-66.422Z"
  />
  <path
    fill="url(#b)"
    d="M349.693 1.26c9.73-2.003 17.295 8.57 12.314 17.249L202.392 333.69a10 10 0 0 1-8.747 6.31l-111.937 8.151c-8.815.642-14.187-8.993-9.601-16.428L233.306 14.914a10 10 0 0 1 6.863-4.912l109.524-8.742Z"
  />
  <path
    fill="#fff"
    d="M275.723 76.944 168.883 112.523a6 6 0 0 0-4.117 6.698l5.146 25.729a6 6 0 0 0 7.919 4.47l24.777-9.332a6 6 0 0 1 7.665 7.5l-36.56 111.492c-2.5 7.62 8.585 12.285 12.75 5.451l2.596-4.327 60.109-120.136a6 6 0 0 0-7.597-8.178l-27.257 8.83c-6.336 2.053-11.967-4.686-8.673-10.618l42.2-75.318Z"
  />
</svg>
